<svg width="159" height="129" viewBox="0 0 159 129" fill="none" xmlns="http://www.w3.org/2000/svg">
<g clip-path="url(#clip0_660_1212)">
<path d="M53.7361 27.9458C59.5092 24.6081 60.8816 16.1655 56.8016 9.08886C52.7215 2.01218 44.7341 -1.01886 38.961 2.31884C33.188 5.65655 31.8156 14.0991 35.8956 21.1758C39.9756 28.2524 47.9631 31.2835 53.7361 27.9458Z" fill="#333333"/>
<path d="M81.6308 0.784551C78.28 4.04762 73.1519 12.1741 73.1519 12.1741C73.1519 12.1741 66.2814 21.7681 63.6608 24.6942C59.7449 29.0684 56.7462 32.8376 32.1773 33.4439C16.8864 33.8212 11.3893 41.8917 11.3893 41.8917C11.3893 41.8917 42.5714 38.7236 35.6424 60.899C28.7135 83.0743 13.9449 123.502 26.002 128.782C26.002 128.782 20.6062 117.265 44.0785 69.6486C67.4274 22.2795 82.9482 19.5641 83.6303 0.784551C83.6563 0.101492 82.7923 -0.348676 81.6308 0.784551Z" fill="#333333"/>
<path d="M133.038 21.0826C137.118 14.0059 135.746 5.56335 129.973 2.22565C124.2 -1.11206 116.212 1.91899 112.132 8.99567C108.052 16.0724 109.424 24.5149 115.197 27.8526C120.97 31.1903 128.958 28.1592 133.038 21.0826Z" fill="#333333"/>
<path d="M87.3033 0.690888C90.6541 3.95266 95.7835 12.0791 95.7835 12.0791C95.7835 12.0791 102.654 21.6745 105.268 24.6006C109.185 28.9747 112.183 32.7439 136.753 33.3502C152.042 33.7275 157.541 41.798 157.541 41.798C157.541 41.798 126.359 38.6299 133.288 60.8053C140.217 82.9806 154.985 123.409 142.928 128.688C142.928 128.688 148.324 117.171 124.852 69.5549C101.507 22.1871 85.991 19.4718 85.3037 0.690888C85.2791 0.00392565 86.1418 -0.441038 87.3033 0.690888Z" fill="#333333"/>
<path d="M43.2977 113.117C42.5779 113.117 42.218 112.739 42.218 111.984V79.5458C42.218 78.2074 42.9036 77.504 44.2747 77.4355C46.674 77.262 49.7593 77.1753 53.5306 77.1753C55.6545 77.1753 57.3937 77.2954 58.7484 77.5357C60.0411 77.7526 61.2752 78.2345 62.3733 78.9512C63.4361 79.6555 64.2074 80.6768 64.6873 82.0152C65.1672 83.3536 65.4071 85.0883 65.4071 87.2195C65.4071 88.9013 65.2442 90.3173 64.9186 91.4675C64.5929 92.6176 64.1065 93.5179 63.4595 94.1685C62.9 94.7492 62.2566 95.2426 61.5509 95.6322C60.8147 96.0034 60.0383 96.2885 59.2369 96.4818C58.8264 96.5845 58.8082 96.742 59.1863 96.9449C61.0364 97.873 62.3387 99.5037 63.0931 101.837L66.2815 111.877C66.4114 112.256 66.401 112.555 66.2295 112.779C66.058 113.003 65.767 113.113 65.3564 113.113H64.0702C63.3842 113.113 62.9558 112.804 62.7852 112.186L59.6488 101.94C59.1681 100.498 58.5254 99.4599 57.7207 98.825C56.916 98.1901 55.8619 97.8726 54.5583 97.8726C51.5761 97.8726 48.7312 97.8383 46.0235 97.7698C45.7143 97.7698 45.561 97.9416 45.561 98.2902V111.987C45.561 112.742 45.1838 113.12 44.4293 113.12L43.2977 113.117ZM46.0261 94.9413H54.3037C56.2577 94.9075 57.7735 94.6759 58.8511 94.2465C59.904 93.8421 60.7542 93.0366 61.2157 92.0061C61.712 90.9427 61.9606 89.4326 61.9615 87.4758C61.9615 84.5926 61.3872 82.6358 60.2387 81.6054C59.0901 80.5749 56.9905 80.0601 53.9399 80.061C52.4674 80.061 49.9988 80.0953 46.5341 80.1638C45.8836 80.1638 45.5584 80.4557 45.5584 81.0394V94.4781C45.561 94.7865 45.7143 94.9413 46.0235 94.9413H46.0261Z" fill="#17BBB0"/>
<path d="M78.4359 113.117C76.5511 113.117 75.0353 112.585 73.8885 111.521C72.7417 110.456 72.167 109.049 72.1644 107.299V83.4022C72.1644 81.6518 72.7387 80.2445 73.8872 79.1802C75.0358 78.1159 76.5516 77.5842 78.4346 77.5851H92.5237C93.2097 77.5851 93.5354 77.9967 93.5008 78.8198V79.3871C93.467 80.074 93.0898 80.4171 92.3691 80.4162H79.0011C77.8707 80.4162 77.0137 80.7337 76.4299 81.3686C75.8461 82.0035 75.555 82.9416 75.5568 84.1828V92.3691C75.5568 92.7126 75.7101 92.8895 76.0193 92.8895H90.2617C91.0153 92.8895 91.3925 93.2673 91.3934 94.0227V94.5432C91.3934 95.2653 91.0153 95.6243 90.2617 95.6243H76.0193C75.7101 95.6243 75.5568 95.7974 75.5568 96.1448V106.598C75.5568 107.8 75.8478 108.718 76.4299 109.352C77.0119 109.986 77.869 110.303 79.0011 110.304H92.3691C93.0906 110.304 93.4679 110.648 93.5008 111.335V111.901C93.5345 112.724 93.2089 113.136 92.5237 113.137L78.4359 113.117Z" fill="#17BBB0"/>
<path d="M100.596 113.117C99.8761 113.117 99.5162 112.739 99.5162 111.984V79.3923C99.5162 78.1901 100.116 77.5894 101.316 77.5903H103.996C104.99 77.5903 105.709 78.0535 106.155 78.9798L119.267 105.131L121.323 109.25C121.461 109.456 121.683 109.559 121.992 109.559C122.369 109.559 122.557 109.404 122.557 109.096V78.7183C122.557 77.9637 122.934 77.5864 123.689 77.5864H124.769C125.522 77.5864 125.899 77.9637 125.9 78.7183V111.311C125.9 112.513 125.3 113.113 124.099 113.113H121.272C120.312 113.113 119.609 112.65 119.164 111.722L105.789 85.1586C105.616 84.7813 105.316 84.1806 104.89 83.3566C104.46 82.533 104.144 81.8981 103.938 81.4519C103.869 81.2454 103.663 81.1422 103.32 81.1422C102.977 81.1422 102.801 81.297 102.801 81.6054V85.4162L102.851 111.984C102.851 112.739 102.475 113.117 101.721 113.117H100.596Z" fill="#17BBB0"/>
<path d="M130.402 113.117C130.024 113.117 129.749 113.006 129.58 112.783C129.41 112.56 129.393 112.242 129.528 111.829L140.788 79.0826C141.096 78.0878 141.781 77.5903 142.845 77.5903H145.573C146.636 77.5903 147.322 78.0878 147.63 79.0826L158.943 111.829C159.045 112.242 159.019 112.56 158.865 112.783C158.71 113.005 158.428 113.117 158.016 113.117H156.834C156.184 113.117 155.755 112.808 155.549 112.19L152.001 101.789C151.982 101.667 151.918 101.557 151.821 101.481C151.725 101.405 151.604 101.368 151.481 101.378H136.93C136.807 101.368 136.685 101.405 136.589 101.481C136.492 101.557 136.428 101.667 136.41 101.789L132.862 112.19C132.656 112.808 132.228 113.117 131.577 113.117H130.402ZM138.012 98.4425H150.403C150.78 98.4425 150.917 98.2538 150.815 97.8765L145.877 83.1511L145.055 80.679C144.985 80.4045 144.795 80.2666 144.489 80.2666H143.923C143.797 80.2619 143.672 80.3 143.569 80.3748C143.467 80.4496 143.393 80.5568 143.358 80.679L142.534 83.1511L137.597 97.8765C137.497 98.2538 137.634 98.4425 138.012 98.4425V98.4425Z" fill="#17BBB0"/>
<path d="M8.87258 46.3072L8.3332 46.7124C7.57383 47.2829 7.42011 48.3619 7.98984 49.1223L16.8749 60.9813C17.4447 61.7417 18.5221 61.8956 19.2815 61.3251L19.8208 60.9198C20.5802 60.3493 20.7339 59.2704 20.1642 58.51L11.2791 46.651C10.7094 45.8906 9.63194 45.7366 8.87258 46.3072Z" fill="#17BAB0"/>
<path d="M136.103 63.3825L135.742 63.6543C135.113 64.1265 134.986 65.0195 135.457 65.6488L141.796 74.1088C142.267 74.7382 143.159 74.8656 143.788 74.3934L144.149 74.1217C144.778 73.6495 144.905 72.7565 144.434 72.1271L138.095 63.6671C137.624 63.0377 136.732 62.9103 136.103 63.3825Z" fill="#17BAB0"/>
<path d="M1.32917 113.116C0.809464 113.116 0.432249 112.963 0.197517 112.657C-0.0372146 112.35 -0.0610327 111.914 0.12606 111.346L15.6132 66.3088C16.0367 64.94 16.9795 64.2557 18.4416 64.2557H22.19C23.6503 64.2557 24.5932 64.94 25.0184 66.3088L40.5757 111.346C40.7178 111.913 40.6822 112.35 40.4692 112.657C40.2561 112.964 39.8663 113.117 39.2998 113.116H37.6758C36.7793 113.116 36.1899 112.691 35.9075 111.842L31.0288 97.5369C30.9339 97.1609 30.6988 96.971 30.322 96.971H10.3135C9.93542 96.971 9.70025 97.1609 9.60671 97.5369L4.72672 111.842C4.44348 112.691 3.85405 113.116 2.95843 113.116H1.32917ZM11.7946 92.9351H28.837C29.3567 92.9351 29.545 92.6748 29.4021 92.1544L22.6135 71.902L21.4819 68.5024C21.3866 68.125 21.1268 67.9364 20.7023 67.9364H19.9228C19.5447 67.9364 19.2861 68.125 19.1432 68.5024L18.0116 71.902L11.2295 92.1557C11.0879 92.6761 11.2749 92.9351 11.7946 92.9351Z" fill="#17BBB0"/>
</g>
<defs>
<clipPath id="clip0_660_1212">
<rect width="159" height="128.781" fill="white"/>
</clipPath>
</defs>
</svg>
